<?xml version="1.0" ?><svg height="210mm" id="svg6336" version="1.1" viewBox="0 0 210 210" width="210mm" xmlns="http://www.w3.org/2000/svg" xmlns:cc="http://creativecommons.org/ns#" xmlns:dc="http://purl.org/dc/elements/1.1/" xmlns:rdf="http://www.w3.org/1999/02/22-rdf-syntax-ns#" xmlns:svg="http://www.w3.org/2000/svg"><defs id="defs6330"/><path d="M 66.886719 22.435547 C 43.330805 22.435547 24.367188 41.399168 24.367188 64.955078 L 24.367188 727.4668 C 24.367188 751.0227 43.330805 769.98633 66.886719 769.98633 L 400.4082 769.98633 L 729.39844 769.98633 C 752.95434 769.98633 771.91797 751.0227 771.91797 727.4668 L 771.91797 64.955078 C 771.91797 41.399168 752.95434 22.435547 729.39844 22.435547 L 400.4082 22.435547 L 66.886719 22.435547 z " id="rect6883" style="opacity:1;fill:#00008b;fill-opacity:1;fill-rule:nonzero;stroke:none;stroke-width:1.00157475;stroke-linecap:round;stroke-linejoin:round;stroke-miterlimit:4;stroke-dasharray:none;stroke-dashoffset:0;stroke-opacity:1" transform="scale(0.26458333)"/><path d="m 65.225592,161.67387 -10.844452,-11.28378 -11.066606,11.06598 2.060607,-15.51385 -15.551649,-1.75269 13.413987,-8.06169 -8.325984,-13.25155 14.666361,5.4611 5.169318,-14.77173 4.874665,14.87157 14.772018,-5.16849 -8.587752,13.08344 13.251087,8.32673 -15.583418,1.44321 z" id="path4658" style="opacity:1;fill:#ffffff;fill-opacity:1;fill-rule:nonzero;stroke:none;stroke-width:1.78518772;stroke-linecap:butt;stroke-linejoin:miter;stroke-miterlimit:4;stroke-dasharray:none;stroke-dashoffset:0;stroke-opacity:1;paint-order:markers fill stroke"/><path d="m 163.18691,39.019077 -4.95095,-5.151527 -5.05238,5.052094 0.94075,-7.082738 -7.09999,-0.80018 6.12406,-3.680503 -3.80117,-6.049903 6.69582,2.493226 2.36002,-6.743925 2.22549,6.789505 6.74406,-2.359634 -3.92068,5.973148 6.04969,3.801509 -7.1145,0.658889 z" id="path4737" style="opacity:1;fill:#ffffff;fill-opacity:1;fill-rule:nonzero;stroke:none;stroke-width:0.81501472;stroke-linecap:butt;stroke-linejoin:miter;stroke-miterlimit:4;stroke-dasharray:none;stroke-dashoffset:0;stroke-opacity:1;paint-order:markers fill stroke"/><path d="m 187.19496,67.111889 -4.95096,-5.151527 -5.05238,5.052094 0.94075,-7.082738 -7.09999,-0.80018 6.12406,-3.680503 -3.80117,-6.049903 6.69582,2.493226 2.36002,-6.743925 2.22549,6.789505 6.74406,-2.359635 -3.92068,5.973149 6.04969,3.801509 -7.11449,0.658889 z" id="path4739" style="opacity:1;fill:#ffffff;fill-opacity:1;fill-rule:nonzero;stroke:none;stroke-width:0.81501472;stroke-linecap:butt;stroke-linejoin:miter;stroke-miterlimit:4;stroke-dasharray:none;stroke-dashoffset:0;stroke-opacity:1;paint-order:markers fill stroke"/><path d="m 141.08701,74.528049 -4.95095,-5.151527 -5.05238,5.052095 0.94075,-7.082739 -7.09999,-0.80018 6.12406,-3.680503 -3.80117,-6.049902 6.69582,2.493225 2.36002,-6.743925 2.22549,6.789505 6.74406,-2.359634 -3.92068,5.973148 6.04969,3.801509 -7.11449,0.65889 z" id="path4741" style="opacity:1;fill:#ffffff;fill-opacity:1;fill-rule:nonzero;stroke:none;stroke-width:0.81501472;stroke-linecap:butt;stroke-linejoin:miter;stroke-miterlimit:4;stroke-dasharray:none;stroke-dashoffset:0;stroke-opacity:1;paint-order:markers fill stroke"/><path d="m 172.1699,93.570217 -2.61317,-2.719028 -2.66669,2.666547 0.49654,-3.738341 -3.74745,-0.422343 3.23234,-1.942607 -2.0063,-3.1932 3.53413,1.31595 1.24564,-3.559512 1.17463,3.583569 3.55959,-1.245438 -2.06938,3.152688 3.19309,2.006475 -3.7551,0.347768 z" id="path4743" style="opacity:1;fill:#ffffff;fill-opacity:1;fill-rule:nonzero;stroke:none;stroke-width:0.43017298;stroke-linecap:butt;stroke-linejoin:miter;stroke-miterlimit:4;stroke-dasharray:none;stroke-dashoffset:0;stroke-opacity:1;paint-order:markers fill stroke"/><path d="m 163.18691,164.96074 -4.95095,-5.15153 -5.05238,5.0521 0.94075,-7.08274 -7.09999,-0.80018 6.12406,-3.6805 -3.80117,-6.04991 6.69582,2.49323 2.36002,-6.74392 2.22549,6.7895 6.74406,-2.35963 -3.92068,5.97314 6.04969,3.80151 -7.1145,0.65889 z" id="path4745" style="opacity:1;fill:#ffffff;fill-opacity:1;fill-rule:nonzero;stroke:none;stroke-width:0.81501472;stroke-linecap:butt;stroke-linejoin:miter;stroke-miterlimit:4;stroke-dasharray:none;stroke-dashoffset:0;stroke-opacity:1;paint-order:markers fill stroke"/><path d="m 6.4471519,22.551176 v 8.619528 L 48.491629,55.445249 6.4471519,79.719803 v 8.619274 L 55.956298,59.754759 105.46544,88.339077 V 79.719803 L 63.420973,55.445249 105.46544,31.170704 V 22.551176 L 55.956298,51.135493 Z" id="path4589-9" style="opacity:1;fill:#ff0000;fill-opacity:1;fill-rule:nonzero;stroke:none;stroke-width:3.31142378;stroke-linecap:butt;stroke-linejoin:miter;stroke-miterlimit:4;stroke-dasharray:none;stroke-dashoffset:0;stroke-opacity:1;paint-order:markers fill stroke"/><path d="M 47.441542,5.9361063 V 46.930499 H 6.4471519 V 63.959753 H 47.441542 v 40.994657 h 8.814855 8.214661 V 63.959753 H 105.46544 V 46.930499 H 64.471058 V 5.9361063 h -8.214661 z" id="path4587-8" style="opacity:1;fill:#ff0000;fill-opacity:1;fill-rule:nonzero;stroke:none;stroke-width:3.31142378;stroke-linecap:butt;stroke-linejoin:miter;stroke-miterlimit:4;stroke-dasharray:none;stroke-dashoffset:0;stroke-opacity:1;paint-order:markers fill stroke"/><path d="M 45.785833,5.9361063 V 43.351834 L 6.4471519,20.639349 v 3.823916 L 42.49381,45.27479 H 34.187828 L 6.4471519,29.258623 v 3.824179 L 27.564459,45.27479 H 6.4471519 v 3.311418 h 26.8530581 6.623106 3.443617 c 2.254244,0 3.635068,-0.09406 5.730318,-0.09406 V 45.26366 5.9361063 Z m 17.029514,0 V 45.26366 48.600321 c 2.020812,0 3.905198,-0.01416 5.730311,-0.01416 h 3.443621 6.623105 26.853056 V 45.274756 H 84.348131 L 105.46544,33.082768 V 29.258589 L 77.724766,45.274756 H 69.418787 L 105.46544,24.463231 V 20.639315 L 66.126769,43.3518 V 5.9360724 Z M 49.097251,62.34402 c -1.90897,0 -3.905596,-0.03993 -5.730835,-0.03993 H 39.923062 33.299693 6.4471519 v 3.311418 H 27.564205 L 6.4471519,77.807459 v 3.824179 L 34.187565,65.615462 H 42.49381 L 6.4471519,86.426987 v 3.823916 L 45.785833,67.538418 v 37.415992 h 3.311418 V 65.626592 Z m 13.718096,0 v 3.282572 39.327818 h 3.311422 V 67.538418 L 105.46544,90.250903 V 86.426987 L 69.418787,65.615462 h 8.30624 L 105.46544,81.631638 V 77.807459 L 84.348391,65.615462 H 105.46544 V 62.304045 H 78.6129 71.989535 68.546173 c -2.093868,0 -5.730826,0.03992 -5.730826,0.03992 z" id="rect4572-7" style="color:#000000;font-style:normal;font-variant:normal;font-weight:normal;font-stretch:normal;font-size:medium;line-height:normal;font-family:sans-serif;font-variant-ligatures:normal;font-variant-position:normal;font-variant-caps:normal;font-variant-numeric:normal;font-variant-alternates:normal;font-feature-settings:normal;text-indent:0;text-align:start;text-decoration:none;text-decoration-line:none;text-decoration-style:solid;text-decoration-color:#000000;letter-spacing:normal;word-spacing:normal;text-transform:none;writing-mode:lr-tb;direction:ltr;text-orientation:mixed;dominant-baseline:auto;baseline-shift:baseline;text-anchor:start;white-space:normal;shape-padding:0;clip-rule:nonzero;display:inline;overflow:visible;visibility:visible;opacity:1;isolation:auto;mix-blend-mode:normal;color-interpolation:sRGB;color-interpolation-filters:linearRGB;solid-color:#000000;solid-opacity:1;vector-effect:none;fill:#ffffff;fill-opacity:1;fill-rule:nonzero;stroke:none;stroke-width:3.31142378;stroke-linecap:butt;stroke-linejoin:miter;stroke-miterlimit:4;stroke-dasharray:none;stroke-dashoffset:0;stroke-opacity:1;paint-order:markers fill stroke;color-rendering:auto;image-rendering:auto;shape-rendering:auto;text-rendering:auto;enable-background:accumulate"/></svg>